{"title":"CHVRCHES Live at Melt Festival [July 2013] 720p 50fps 12Mbps","uid":10555800,"size":3177768360,"categoryP":"video","categoryS":"music_videos","magnet":"?xt=urn:btih:b3eba4694e792c0d85b726cd2676be6b3781c4ca&amp;dn=CHVRCHES+Live+at+Melt+Festival+%5BJuly+2013%5D+720p+50fps+12Mbps&amp;tr=udp%3A%2F%2Ftracker.openbittorrent.com%3A80&amp;tr=udp%3A%2F%2Fopen.demonii.com%3A1337&amp;tr=udp%3A%2F%2Ftracker.coppersurfer.tk%3A6969&amp;tr=udp%3A%2F%2Fexodus.desync.com%3A6969","seeders":2,"leechers":1,"uploader":"doragon69","files":2,"time":1405391291,"description":"CHVRCHES Live at The Melt Festival\n\nMediaPlayerClassic thumbnails: &lt;a href=&quot;\nhttp://image.bayimg.com/b498088f13dab3b56ed192a1985985c0d2856041.jpg&quot; rel=&quot;nofollow&quot; target=&quot;_NEW&quot;&gt;\nhttp://image.bayimg.com/b498088f13dab3b56ed192a1985985c0d2856041.jpg&lt;/a&gt;\n\n\n.TS contrainer\nVideo: MPEG4 Video (H264) 1280x720 50fps 12.2Mbps\nAudio: Dolby AC3 48000Hz stereo 448kbps \n\nSetlist:\nLies\nWe Sink\nGun\nLungs\nScience/Visions\nRecover\nUnder the Tide\nThe Mother We Share\n\nVideo\nFormat : AVC\nFormat/Info : Advanced Video Codec\nFormat profile : &lt;a class=&quot;__cf_email__&quot; href=&quot;/cdn-cgi/l/email-protection&quot; data-cfemail=&quot;5119383639111d657f61&quot;&gt;[email&amp;#160;protected]&lt;/a&gt;&lt;script cf-hash='f9e31' type=&quot;text/javascript&quot;&gt;\n/* &lt;![CDATA[ */!function(){try{var t=&quot;currentScript&quot;in document?document.currentScript:function(){for(var t=document.getElementsByTagName(&quot;script&quot;),e=t.length;e--;)if(t[e].getAttribute(&quot;cf-hash&quot;))return t[e]}();if(t&amp;&amp;t.previousSibling){var e,r,n,i,c=t.previousSibling,a=c.getAttribute(&quot;data-cfemail&quot;);if(a){for(e=&quot;&quot;,r=parseInt(a.substr(0,2),16),n=2;a.length-n;n+=2)i=parseInt(a.substr(n,2),16)^r,e+=String.fromCharCode(i);e=document.createTextNode(e),c.parentNode.replaceChild(e,c)}}}catch(u){}}();/* ]]&gt; */&lt;/script&gt;\nFormat settings, CABAC : Yes\nFormat settings, ReFrames : 6 frames\nCodec ID : 27\nDuration : 31mn 45s\nBit rate : 12.2 Mbps\nWidth : 1 280 pixels\nHeight : 720 pixels\nDisplay aspect ratio : 16:9\nFrame rate : 50.000 fps\nColor space : YUV\nChroma subsampling : 4:2:0\nBit depth : 8 bits\nScan type : Progressive\nBits/(Pixel*Frame) : 0.265\nStream size : 2.71 GiB (92%)\n\nAudio\nFormat : AC-3\nFormat/Info : Audio Coding 3\nMode extension : CM (complete main)\nFormat settings, Endianness : Big\nCodec ID : 6\nDuration : 31mn 45s\nBit rate mode : Constant\nBit rate : 448 Kbps\nChannel(s) : 2 channels\nChannel positions : Front: L R\nSampling rate : 48.0 KHz\nBit depth : 16 bits\nCompression mode : Lossy\nStream size : 102 MiB (3%)","torrent":{"xt":"urn:btih:b3eba4694e792c0d85b726cd2676be6b3781c4ca","amp;dn":"CHVRCHES+Live+at+Melt+Festival+%5BJuly+2013%5D+720p+50fps+12Mbps","amp;tr":["udp%3A%2F%2Ftracker.openbittorrent.com%3A80","udp%3A%2F%2Fopen.demonii.com%3A1337","udp%3A%2F%2Ftracker.coppersurfer.tk%3A6969","udp%3A%2F%2Fexodus.desync.com%3A6969"],"infoHash":"b3eba4694e792c0d85b726cd2676be6b3781c4ca","infoHashBuffer":{"type":"Buffer","data":[179,235,164,105,78,121,44,13,133,183,38,205,38,118,190,107,55,129,196,202]},"announce":[],"urlList":[]}}